<svg xmlns="http://www.w3.org/2000/svg" xmlns:xlink="http://www.w3.org/1999/xlink" viewBox="0,0,256,256" width="24px" height="24px"><g  fill-rule="nonzero" stroke="none" stroke-width="1" stroke-linecap="butt" stroke-linejoin="miter" stroke-miterlimit="10" stroke-dasharray="" stroke-dashoffset="0" font-family="none" font-weight="none" font-size="none" text-anchor="none" style="mix-blend-mode: normal"><g transform="scale(10.66667,10.66667)"><path d="M12,2c-5.511,0 -10,4.489 -10,10c0,5.511 4.489,10 10,10c5.511,0 10,-4.489 10,-10c0,-5.511 -4.489,-10 -10,-10zM12,4c4.43012,0 8,3.56988 8,8c0,4.43012 -3.56988,8 -8,8c-4.43012,0 -8,-3.56988 -8,-8c0,-4.43012 3.56988,-8 8,-8zM10.68945,8c-1.54,0 -2.99333,0.17163 -4.36133,0.51563c-0.342,0.085 -0.59961,0.34052 -0.59961,0.85352c0,0.513 0.34247,0.94147 0.85547,0.85547c0.256,0 0.34267,-0.08594 0.51367,-0.08594c1.112,-0.257 2.3948,-0.42773 3.5918,-0.42773c2.395,0 4.87494,0.59806 6.58594,1.53906c0.256,0.085 0.34072,0.17188 0.51172,0.17188c0.514,0 0.85641,-0.34247 0.94141,-0.85547c0,-0.427 -0.25472,-0.68447 -0.51172,-0.85547c-2.138,-1.112 -4.87634,-1.71094 -7.52734,-1.71094zM10.51953,10.99414c-1.454,0 -2.47986,0.25667 -3.50586,0.51367c-0.428,0.171 -0.59961,0.34153 -0.59961,0.76953c0,0.342 0.25559,0.68359 0.68359,0.68359c0.171,0 0.25673,0.00006 0.42773,-0.08594c0.77,-0.171 1.7962,-0.3418 2.9082,-0.3418c2.223,0 4.27647,0.51212 5.73047,1.45313c0.171,0.085 0.34267,0.17188 0.51367,0.17188c0.427,0 0.68253,-0.34253 0.76953,-0.76953c0,-0.256 -0.17074,-0.51259 -0.42773,-0.68359c-1.882,-1.112 -4.105,-1.71094 -6.5,-1.71094zM10.77539,14.00781c-1.197,0 -2.30988,0.17074 -3.42188,0.42774c-0.342,0 -0.51172,0.25566 -0.51172,0.59766c0,0.342 0.25566,0.59961 0.59766,0.59961c0.086,0 0.25673,-0.08594 0.42773,-0.08594c0.855,-0.171 1.88127,-0.3418 2.82227,-0.3418c1.71,0 3.33614,0.42727 4.61914,1.19727c0.171,0.085 0.25673,0.16992 0.42773,0.16992c0.256,0 0.51259,-0.16966 0.68359,-0.59766c0,-0.342 -0.1708,-0.42861 -0.3418,-0.59961c-1.54,-0.855 -3.33573,-1.36719 -5.30273,-1.36719z"></path></g></g></svg>